<svg width="465" height="457" viewBox="0 0 465 457" fill="none" xmlns="http://www.w3.org/2000/svg">
<path d="M464.291 166.537V290.605C464.291 301.407 455.776 310.169 445.238 310.169H346.401C331.002 310.169 316.779 301.664 309.193 287.872C280.324 235.386 238.347 191.592 187.841 161.141C172.5 151.892 162.895 135.152 162.895 116.855V19.608C162.895 8.824 171.469 0 181.948 0H302.464C313.002 0 321.517 8.806 321.517 19.608V146.929H445.237C455.761 146.929 464.291 155.708 464.291 166.537Z" fill="#44A6F1"/>
<path d="M162.885 327.997V430.488C162.885 444.792 174.481 456.388 188.785 456.388H299.43C313.734 456.388 325.33 444.792 325.33 430.488V367.66C325.33 325.199 280.646 266.46 258.924 241.84C205.433 181.213 151.904 147.743 46.706 147.743H6.34C41.595 214.348 131.3 251.002 189.349 253.19C123.955 254.01 36.528 220.074 0 152.864C2.283 247.259 67.464 303.414 162.886 310.187C219.951 314.238 275.48 312.601 294.91 341.386C304.733 355.939 303.782 369.005 303.782 386.828L303.748 430.488C303.746 432.873 301.813 434.805 299.428 434.805H188.785C186.401 434.805 184.468 432.872 184.468 430.488C184.468 430.488 184.468 376.989 184.468 358.06C184.468 330.38 162.885 327.997 162.885 327.997Z" fill="url(#paint0_linear_17_708)"/>
<defs>
<linearGradient id="paint0_linear_17_708" x1="162.664" y1="147.743" x2="162.664" y2="462.752" gradientUnits="userSpaceOnUse">
<stop stop-color="#88C250"/>
<stop offset="0.1243" stop-color="#80BF64"/>
<stop offset="0.3767" stop-color="#6AB696"/>
<stop offset="0.4776" stop-color="#61B2AC"/>
<stop offset="1" stop-color="#44A6F1"/>
</linearGradient>
</defs>
</svg>
