<?xml version="1.0" encoding="utf-8"?>
<!-- Generator: Adobe Illustrator 27.5.0, SVG Export Plug-In . SVG Version: 6.00 Build 0)  -->
<svg version="1.1" xmlns="http://www.w3.org/2000/svg" xmlns:xlink="http://www.w3.org/1999/xlink" x="0px" y="0px"
	 viewBox="0 0 500 500" style="enable-background:new 0 0 500 500;" xml:space="preserve">
<g id="BACKGROUND">
	<rect style="fill:#B3D6FE;" width="500" height="500"/>
</g>
<g id="OBJECTS">
	<g>
		<rect y="418.881" style="opacity:0.45;fill:#82B2FE;" width="500" height="81.119"/>
		<g>
			<rect x="306.557" y="138.185" style="opacity:0.28;fill:#B3D6FE;" width="151.356" height="88.696"/>
			<g>
				<rect x="131.276" y="94.881" style="fill:#82B2FE;" width="200.946" height="324"/>
				<g>
					<rect x="145.14" y="109.49" style="fill:#164B8F;" width="173.217" height="61.367"/>
					<rect x="145.14" y="187.295" style="fill:#164B8F;" width="173.217" height="61.367"/>
					<rect x="145.14" y="265.1" style="fill:#164B8F;" width="173.217" height="61.367"/>
					<rect x="145.14" y="342.905" style="fill:#164B8F;" width="173.217" height="61.367"/>
				</g>
				<g>
					<g>
						<path style="fill:#82B2FE;" d="M166.428,140.433h-3.705c-3.764,0-6.815,3.051-6.815,6.815v20.607h17.336v-20.607
							C173.243,143.484,170.192,140.433,166.428,140.433z"/>
						<rect x="158.665" y="134.728" style="fill:#1B6CE2;" width="11.821" height="5.705"/>
						<rect x="155.907" y="149.498" style="opacity:0.58;fill:#F6F6F6;" width="17.336" height="13.308"/>
					</g>
					<g>
						<path style="fill:#82B2FE;" d="M193.297,140.433h-3.705c-3.764,0-6.815,3.051-6.815,6.815v20.607h17.336v-20.607
							C200.113,143.484,197.061,140.433,193.297,140.433z"/>
						<rect x="185.534" y="134.728" style="fill:#1B6CE2;" width="11.821" height="5.705"/>
						<rect x="182.777" y="149.498" style="opacity:0.58;fill:#F6F6F6;" width="17.336" height="13.308"/>
					</g>
					<g>
						<path style="fill:#82B2FE;" d="M220.167,140.433h-3.705c-3.764,0-6.815,3.051-6.815,6.815v20.607h17.336v-20.607
							C226.982,143.484,223.931,140.433,220.167,140.433z"/>
						<rect x="212.404" y="134.728" style="fill:#1B6CE2;" width="11.821" height="5.705"/>
						<rect x="209.647" y="149.498" style="opacity:0.58;fill:#F6F6F6;" width="17.336" height="13.308"/>
					</g>
					<g>
						<path style="fill:#82B2FE;" d="M247.036,140.433h-3.705c-3.764,0-6.815,3.051-6.815,6.815v20.607h17.336v-20.607
							C253.852,143.484,250.8,140.433,247.036,140.433z"/>
						<rect x="239.274" y="134.728" style="fill:#1B6CE2;" width="11.821" height="5.705"/>
						<rect x="236.516" y="149.498" style="opacity:0.58;fill:#F6F6F6;" width="17.336" height="13.308"/>
					</g>
					<g>
						<path style="fill:#82B2FE;" d="M273.906,140.433h-3.705c-3.764,0-6.815,3.051-6.815,6.815v20.607h17.336v-20.607
							C280.721,143.484,277.67,140.433,273.906,140.433z"/>
						<rect x="266.143" y="134.728" style="fill:#1B6CE2;" width="11.821" height="5.705"/>
						<rect x="263.386" y="149.498" style="opacity:0.58;fill:#F6F6F6;" width="17.336" height="13.308"/>
					</g>
					<g>
						<path style="fill:#82B2FE;" d="M300.775,140.433h-3.705c-3.764,0-6.815,3.051-6.815,6.815v20.607h17.336v-20.607
							C307.591,143.484,304.54,140.433,300.775,140.433z"/>
						<rect x="293.013" y="134.728" style="fill:#1B6CE2;" width="11.821" height="5.705"/>
						<rect x="290.255" y="149.498" style="opacity:0.58;fill:#F6F6F6;" width="17.336" height="13.308"/>
					</g>
				</g>
				<g>
					<g>
						<path style="fill:#82B2FE;" d="M166.428,218.022h-3.705c-3.764,0-6.815,3.051-6.815,6.815v20.607h17.336v-20.607
							C173.243,221.074,170.192,218.022,166.428,218.022z"/>
						<rect x="158.665" y="212.317" style="fill:#1B6CE2;" width="11.821" height="5.705"/>
						<rect x="155.907" y="227.087" style="opacity:0.58;fill:#F6F6F6;" width="17.336" height="13.308"/>
					</g>
					<g>
						<path style="fill:#82B2FE;" d="M193.297,218.022h-3.705c-3.764,0-6.815,3.051-6.815,6.815v20.607h17.336v-20.607
							C200.113,221.074,197.061,218.022,193.297,218.022z"/>
						<rect x="185.534" y="212.317" style="fill:#1B6CE2;" width="11.821" height="5.705"/>
						<rect x="182.777" y="227.087" style="opacity:0.58;fill:#F6F6F6;" width="17.336" height="13.308"/>
					</g>
					<g>
						<path style="fill:#82B2FE;" d="M220.167,218.022h-3.705c-3.764,0-6.815,3.051-6.815,6.815v20.607h17.336v-20.607
							C226.982,221.074,223.931,218.022,220.167,218.022z"/>
						<rect x="212.404" y="212.317" style="fill:#1B6CE2;" width="11.821" height="5.705"/>
						<rect x="209.647" y="227.087" style="opacity:0.58;fill:#F6F6F6;" width="17.336" height="13.308"/>
					</g>
					<g>
						<path style="fill:#82B2FE;" d="M247.036,218.022h-3.705c-3.764,0-6.815,3.051-6.815,6.815v20.607h17.336v-20.607
							C253.852,221.074,250.8,218.022,247.036,218.022z"/>
						<rect x="239.274" y="212.317" style="fill:#1B6CE2;" width="11.821" height="5.705"/>
						<rect x="236.516" y="227.087" style="opacity:0.58;fill:#F6F6F6;" width="17.336" height="13.308"/>
					</g>
					<g>
						<path style="fill:#82B2FE;" d="M273.906,218.022h-3.705c-3.764,0-6.815,3.051-6.815,6.815v20.607h17.336v-20.607
							C280.721,221.074,277.67,218.022,273.906,218.022z"/>
						<rect x="266.143" y="212.317" style="fill:#1B6CE2;" width="11.821" height="5.705"/>
						<rect x="263.386" y="227.087" style="opacity:0.58;fill:#F6F6F6;" width="17.336" height="13.308"/>
					</g>
					<g>
						<path style="fill:#82B2FE;" d="M300.775,218.022h-3.705c-3.764,0-6.815,3.051-6.815,6.815v20.607h17.336v-20.607
							C307.591,221.074,304.54,218.022,300.775,218.022z"/>
						<rect x="293.013" y="212.317" style="fill:#1B6CE2;" width="11.821" height="5.705"/>
						<rect x="290.255" y="227.087" style="opacity:0.58;fill:#F6F6F6;" width="17.336" height="13.308"/>
					</g>
				</g>
				<g>
					<g>
						<path style="fill:#82B2FE;" d="M166.428,294.464h-3.705c-3.764,0-6.815,3.051-6.815,6.815v20.607h17.336V301.28
							C173.243,297.516,170.192,294.464,166.428,294.464z"/>
						<rect x="158.665" y="288.759" style="fill:#1B6CE2;" width="11.821" height="5.705"/>
						<rect x="155.907" y="303.529" style="opacity:0.58;fill:#F6F6F6;" width="17.336" height="13.308"/>
					</g>
					<g>
						<path style="fill:#82B2FE;" d="M193.297,294.464h-3.705c-3.764,0-6.815,3.051-6.815,6.815v20.607h17.336V301.28
							C200.113,297.516,197.061,294.464,193.297,294.464z"/>
						<rect x="185.534" y="288.759" style="fill:#1B6CE2;" width="11.821" height="5.705"/>
						<rect x="182.777" y="303.529" style="opacity:0.58;fill:#F6F6F6;" width="17.336" height="13.308"/>
					</g>
					<g>
						<path style="fill:#82B2FE;" d="M220.167,294.464h-3.705c-3.764,0-6.815,3.051-6.815,6.815v20.607h17.336V301.28
							C226.982,297.516,223.931,294.464,220.167,294.464z"/>
						<rect x="212.404" y="288.759" style="fill:#1B6CE2;" width="11.821" height="5.705"/>
						<rect x="209.647" y="303.529" style="opacity:0.58;fill:#F6F6F6;" width="17.336" height="13.308"/>
					</g>
					<g>
						<path style="fill:#82B2FE;" d="M247.036,294.464h-3.705c-3.764,0-6.815,3.051-6.815,6.815v20.607h17.336V301.28
							C253.852,297.516,250.8,294.464,247.036,294.464z"/>
						<rect x="239.274" y="288.759" style="fill:#1B6CE2;" width="11.821" height="5.705"/>
						<rect x="236.516" y="303.529" style="opacity:0.58;fill:#F6F6F6;" width="17.336" height="13.308"/>
					</g>
					<g>
						<path style="fill:#82B2FE;" d="M273.906,294.464h-3.705c-3.764,0-6.815,3.051-6.815,6.815v20.607h17.336V301.28
							C280.721,297.516,277.67,294.464,273.906,294.464z"/>
						<rect x="266.143" y="288.759" style="fill:#1B6CE2;" width="11.821" height="5.705"/>
						<rect x="263.386" y="303.529" style="opacity:0.58;fill:#F6F6F6;" width="17.336" height="13.308"/>
					</g>
					<g>
						<path style="fill:#82B2FE;" d="M300.775,294.464h-3.705c-3.764,0-6.815,3.051-6.815,6.815v20.607h17.336V301.28
							C307.591,297.516,304.54,294.464,300.775,294.464z"/>
						<rect x="293.013" y="288.759" style="fill:#1B6CE2;" width="11.821" height="5.705"/>
						<rect x="290.255" y="303.529" style="opacity:0.58;fill:#F6F6F6;" width="17.336" height="13.308"/>
					</g>
				</g>
				<g>
					<g>
						<path style="fill:#82B2FE;" d="M166.428,372.061h-3.705c-3.764,0-6.815,3.051-6.815,6.815v20.607h17.336v-20.607
							C173.243,375.113,170.192,372.061,166.428,372.061z"/>
						<rect x="158.665" y="366.356" style="fill:#1B6CE2;" width="11.821" height="5.705"/>
						<rect x="155.907" y="381.126" style="opacity:0.58;fill:#F6F6F6;" width="17.336" height="13.308"/>
					</g>
					<g>
						<path style="fill:#82B2FE;" d="M193.297,372.061h-3.705c-3.764,0-6.815,3.051-6.815,6.815v20.607h17.336v-20.607
							C200.113,375.113,197.061,372.061,193.297,372.061z"/>
						<rect x="185.534" y="366.356" style="fill:#1B6CE2;" width="11.821" height="5.705"/>
						<rect x="182.777" y="381.126" style="opacity:0.58;fill:#F6F6F6;" width="17.336" height="13.308"/>
					</g>
					<g>
						<path style="fill:#82B2FE;" d="M220.167,372.061h-3.705c-3.764,0-6.815,3.051-6.815,6.815v20.607h17.336v-20.607
							C226.982,375.113,223.931,372.061,220.167,372.061z"/>
						<rect x="212.404" y="366.356" style="fill:#1B6CE2;" width="11.821" height="5.705"/>
						<rect x="209.647" y="381.126" style="opacity:0.58;fill:#F6F6F6;" width="17.336" height="13.308"/>
					</g>
					<g>
						<path style="fill:#82B2FE;" d="M247.036,372.061h-3.705c-3.764,0-6.815,3.051-6.815,6.815v20.607h17.336v-20.607
							C253.852,375.113,250.8,372.061,247.036,372.061z"/>
						<rect x="239.274" y="366.356" style="fill:#1B6CE2;" width="11.821" height="5.705"/>
						<rect x="236.516" y="381.126" style="opacity:0.58;fill:#F6F6F6;" width="17.336" height="13.308"/>
					</g>
					<g>
						<path style="fill:#82B2FE;" d="M273.906,372.061h-3.705c-3.764,0-6.815,3.051-6.815,6.815v20.607h17.336v-20.607
							C280.721,375.113,277.67,372.061,273.906,372.061z"/>
						<rect x="266.143" y="366.356" style="fill:#1B6CE2;" width="11.821" height="5.705"/>
						<rect x="263.386" y="381.126" style="opacity:0.58;fill:#F6F6F6;" width="17.336" height="13.308"/>
					</g>
					<g>
						<path style="fill:#82B2FE;" d="M300.775,372.061h-3.705c-3.764,0-6.815,3.051-6.815,6.815v20.607h17.336v-20.607
							C307.591,375.113,304.54,372.061,300.775,372.061z"/>
						<rect x="293.013" y="366.356" style="fill:#1B6CE2;" width="11.821" height="5.705"/>
						<rect x="290.255" y="381.126" style="opacity:0.58;fill:#F6F6F6;" width="17.336" height="13.308"/>
					</g>
				</g>
			</g>
			<rect x="42.087" y="94.881" style="opacity:0.28;fill:#B3D6FE;" width="69.391" height="120.253"/>
		</g>
	</g>
	<g>
		<g>
			<g>
				<g>
					<path style="fill:#1B6CE2;" d="M360.408,286.315c1.72-20.27,3.05-54.73-3.94-82.99l3.59-1.29l1.93-0.69l19.12-6.87l1.96-0.7
						l4.73-1.7c0,0,23.6,17.16,23.33,92.62C394.208,285.765,377.198,285.855,360.408,286.315z"/>
					<path style="fill:#052954;" d="M360.404,286.313c-0.898,10.549-1.904,17.261-1.904,17.261h52.1
						c0.339-6.672,0.504-12.952,0.525-18.883C394.21,285.769,377.195,285.86,360.404,286.313z"/>
					<path style="fill:#FDBB8B;" d="M377.158,212.285c-8.259,3.45-14.92-5.74-17.1-10.25l1.93-0.69l19.12-6.87
						C382.818,198.525,385.898,208.634,377.158,212.285z"/>
					<g>
						<g>
							<path style="fill:#F09510;" d="M351.094,170.438c0,3.967-3.216,7.183-7.183,7.183c-3.967,0-7.183-3.216-7.183-7.183
								c0-3.967,3.216-7.183,7.183-7.183C347.878,163.255,351.094,166.471,351.094,170.438z"/>
							<path style="fill:#FDBB8B;" d="M368.401,203.328l10.429-4.032l-3.074-7.224c-3.436,2.226-7.337,3.652-11.526,4.537
								L368.401,203.328z"/>
							<path style="fill:#F09510;" d="M359.328,188.71l4.902,7.898c4.19-0.885,8.09-2.311,11.526-4.537l-3.575-8.402L359.328,188.71
								z"/>
							<path style="fill:#052954;" d="M344.962,160.483c0,0-8.821-6.049-5.041-16.634c0,0-4.61-2.318-5.293-6.301
								c-1.512-8.821,20.163-16.13,30.748-8.317c10.585,7.813,7.994,14.34,7.994,14.34"/>
							<path style="fill:#FDBB8B;" d="M365.06,193.196h-7.379c-7.605,0-13.77-6.165-13.77-13.77v-25.837
								c0-7.605,6.165-13.77,13.77-13.77h7.379c7.605,0,13.77,6.165,13.77,13.77v25.837
								C378.83,187.031,372.665,193.196,365.06,193.196z"/>
							<path style="fill:#052954;" d="M361.371,137.044c0,0-6.639,24.447,17.46,33.394c0,0,7.213-8.446,6.205-19.533
								c-1.008-11.087-6.739-14.621-16.13-12.854"/>
							<circle style="fill:#FDBB8B;" cx="380.624" cy="170.438" r="7.183"/>
							<path style="fill:#F09510;" d="M380.947,169.669c0.196-0.172,0.389-0.348,0.583-0.522c0.221-0.199,0.471-0.382,0.628-0.638
								c0.145-0.237,0.096-0.567-0.098-0.762c-0.21-0.209-0.506-0.217-0.762-0.098c-0.25,0.116-0.457,0.356-0.663,0.538
								c-0.195,0.173-0.391,0.345-0.585,0.52c-0.399,0.36-0.796,0.721-1.194,1.081c-0.785,0.71-1.569,1.421-2.354,2.132
								c-0.25,0.226-0.23,0.653,0,0.883c0.251,0.251,0.629,0.223,0.883,0c0.427-0.376,0.855-0.752,1.283-1.128
								c0.15,0.239,0.341,0.462,0.512,0.68c0.195,0.249,0.39,0.499,0.585,0.748c0.39,0.498,0.789,0.989,1.184,1.483
								c0.104,0.13,0.333,0.204,0.491,0.204c0.17,0,0.374-0.076,0.491-0.204c0.274-0.298,0.249-0.684,0-0.983
								c-0.404-0.484-0.805-0.972-1.215-1.452c-0.198-0.232-0.397-0.465-0.595-0.698c-0.105-0.124-0.211-0.247-0.316-0.371
								c-0.069-0.081-0.151-0.143-0.224-0.211c0.064-0.056,0.127-0.112,0.19-0.167C380.163,170.358,380.555,170.014,380.947,169.669
								z"/>
						</g>
						<g>
							<path style="fill:#164B8F;" d="M349.967,159.343h0.869c1.803,0,3.265,1.462,3.265,3.265v1.389h-7.4v-1.389
								C346.702,160.805,348.164,159.343,349.967,159.343z"/>
							<path style="fill:#164B8F;" d="M362.833,159.343h0.869c1.803,0,3.265,1.462,3.265,3.265v1.389h-7.4v-1.389
								C359.568,160.805,361.03,159.343,362.833,159.343z"/>
						</g>
						<g>
							<path style="fill:#052954;" d="M352.503,170.128c0,1.412-0.849,2.557-1.897,2.557c-1.048,0-1.897-1.145-1.897-2.557
								c0-1.412,0.849-2.557,1.897-2.557C351.653,167.571,352.503,168.716,352.503,170.128z"/>
							<path style="fill:#FF4545;" d="M356.476,166.514v12.343h-3.82c-1.594,0-2.577-1.741-1.753-3.106L356.476,166.514z"/>
							<path style="fill:#052954;" d="M365.164,170.128c0,1.412-0.849,2.557-1.897,2.557c-1.048,0-1.897-1.145-1.897-2.557
								c0-1.412,0.849-2.557,1.897-2.557C364.315,167.571,365.164,168.716,365.164,170.128z"/>
							<g>
								<path style="fill:#FF4545;" d="M361.164,188.794c1.701,0.387,3.594,0.215,5.552-1.06c3.736-2.433,4.6-6.199,4.638-9.044
									C366.38,180.313,362.294,184.051,361.164,188.794z"/>
								<path style="fill:#052954;" d="M370.905,174.788l-16.803,8.881c0,0,2.968,4.193,7.062,5.124
									c1.131-4.743,5.217-8.481,10.19-10.104C371.384,176.455,370.905,174.788,370.905,174.788z"/>
							</g>
						</g>
					</g>
					<path style="fill:#F6F6F6;" d="M380.624,194.653c0,0,18.478,48.141,17.721,108.921h37.574c0,0-11.722-75.089-47.685-111.83
						L380.624,194.653z"/>
					<path style="fill:#CEDDED;" d="M347.895,203.563c0,0-8.266,66.165-48.567,97.144h36.812c0,0,15.951-33.275,14.942-65.447
						L347.895,203.563z"/>
					<path style="fill:#F6F6F6;" d="M361.99,201.346l-14.095,2.217c0,0,9.442,67.591-13.341,100.014h29.677
						C364.23,303.577,378.309,254.466,361.99,201.346z"/>
					<path style="fill:#CEDDED;" d="M362.729,198.963c0,0,9.318,34.319,7.138,58.613l-9.186-28.189l2.587-2.506l-4.768-1.745
						l-2.902-24.69L362.729,198.963z"/>
					<path style="fill:#CEDDED;" d="M380.031,193.509c0,0,9.857,36.91,15.038,61.235v-33.286l-3.749,0.802l2.583-4.282
						l-7.486-27.839L380.031,193.509z"/>
				</g>
				<g>
					<path style="fill:#FDBB8B;" d="M382.241,268.816c-0.664,0.196-19.232-1.957-23.742,8.022v4.109c0,0,18.605,0.978,24.559-2.348
						L382.241,268.816z"/>
					<path style="fill:#CEDDED;" d="M388.235,191.744l0.124,0.571c2.461,11.376,7.034,22.199,13.567,31.832
						c4.28,6.311,8.971,13.724,11.739,19.625c6.056,12.913-34.833,19.201-34.833,19.201l2.382,19.734
						c0,0,47.547-0.722,53.777-19.734C446.386,228.195,392.349,193.324,388.235,191.744z"/>
					<polygon style="fill:#F6F6F6;" points="384.812,259.84 388.816,271.359 393.903,269.403 390.772,257.577 					"/>
				</g>
			</g>
			<g>
				<g>
					<g>
						<rect x="203.69" y="300.707" style="fill:#F6F6F6;" width="235.643" height="118.174"/>
						<polygon style="fill:#FF4545;" points="332.284,349.022 332.284,324.185 310.739,324.185 310.739,349.022 285.903,349.022 
							285.903,370.566 310.739,370.566 310.739,395.403 332.284,395.403 332.284,370.566 357.12,370.566 357.12,349.022 						"/>
						<rect x="188.859" y="282.707" style="fill:#1B6CE2;" width="265.304" height="18"/>
					</g>
					<polygon style="opacity:0.3;fill:#B3D6FE;" points="439.333,300.707 203.69,300.707 203.69,319.099 439.333,308.142 					"/>
				</g>
				<g>
					<g>
						<path style="fill:#052954;" d="M337.259,198.963H237.26c-1.551,0-2.808,1.257-2.808,2.808v58.393
							c0,1.551,1.257,2.808,2.808,2.808h99.999c1.551,0,2.808-1.257,2.808-2.808v-58.393
							C340.067,200.221,338.81,198.963,337.259,198.963z"/>
						<polygon style="fill:#00376D;" points="302.808,282.707 271.71,282.707 276.973,236.973 297.546,236.973 						"/>
						<circle style="fill:#00376D;" cx="287.259" cy="222.261" r="7.127"/>
						<rect x="242.087" y="256.221" style="fill:#00376D;" width="6.219" height="2.711"/>
						<rect x="253.09" y="256.221" style="fill:#00376D;" width="6.219" height="2.711"/>
					</g>
					<rect x="308.99" y="276.838" style="fill:#052954;" width="58.696" height="5.87"/>
				</g>
			</g>
		</g>
		<g>
			<g>
				<path style="fill:#FDBB8B;" d="M185.534,192.633c0,0,6.065-21.495-2.13-21.682c-8.195-0.187-6.864,10.389-6.864,10.389
					s-3.646-3.274-5.147-1.992c-1.501,1.282,5.743,11.93,5.743,11.93"/>
				<path style="fill:#052954;" d="M158.69,222.441c-2.861-19.255-18.399-22.156-18.399-22.156l-0.421-48.928l-1.045,1.789
					l0.492-4.046l-36.714-5.794l-22.561,52.3c0,0-34.207,3.571-34.207,28.609c0,25.038,21.864,28.245,21.864,28.245
					s61.101,3.799,64.323,3.76C153.034,255.965,161.551,241.697,158.69,222.441z"/>
				<path style="fill:#CEDDED;" d="M133.98,204.602c0,0,18.493,36.6,28.702,30.923c7.487-4.163,5.27-45.386,5.27-45.386h23.521
					c0,0,7.134,63.52-24.215,66.42c-31.349,2.899-33.278-37.482-33.278-37.482"/>
				<path style="fill:#F6F6F6;" d="M145.229,262.973c-5.169-18.141-7.286-40.473-8.113-52.992
					c-0.361-5.458-4.893-9.694-10.364-9.694l0,0l-18.137,45.638l-1.93,95.283h56.152
					C162.838,341.207,152.859,289.751,145.229,262.973z"/>
				<path style="fill:#CEDDED;" d="M128.9,197.574c0,0,12.533,43.082,9.459,71.773l-12.346-35.844l3.646-2.96l-6.719-2.061
					l-4.09-29.158L128.9,197.574z"/>
				<g>
					<g>
						<polygon style="fill:#052954;" points="140.291,295.784 137.456,411.055 130.254,411.055 117.403,295.784 						"/>
						<path style="fill:#1B6CE2;" d="M129.122,412.161l-1.889,4.313v2.407h25.66l-1.519-2.407c0,0-8.656-4-14.888-4.71
							L129.122,412.161z"/>
						<rect x="127.233" y="404.272" style="fill:#164B8F;" width="13.058" height="7.889"/>
					</g>
					<g>
						<polygon style="fill:#052954;" points="118.182,295.784 107.118,411.055 99.915,411.055 95.293,295.784 						"/>
						<path style="fill:#1B6CE2;" d="M98.705,412.161l-2.197,4.313l-0.172,2.407h25.66l-1.347-2.407c0,0-8.371-4-14.552-4.71
							L98.705,412.161z"/>
						<polygon style="fill:#164B8F;" points="109.874,412.161 96.816,412.161 97.379,404.272 110.437,404.272 						"/>
					</g>
				</g>
				<g>
					<path style="fill:#FF4545;" d="M146.498,304.515h-59.49c0,0-4.32-53.96,13.98-104.23h28.14c0,0,9.84,21.59,10.19,27.8
						c0.35,6.21-8.38,11.07-8.38,11.07L146.498,304.515z"/>
					<path style="fill:#FDBB8B;" d="M123.678,200.285c-0.55,2.94-2.35,9.9-7.15,11.75c-5.02,1.94-11.16-8.07-13.21-11.75H123.678z"
						/>
				</g>
				<g>
					<g>
						<circle style="fill:#F09510;" cx="139.318" cy="170.438" r="7.183"/>
						<path style="fill:#FDBB8B;" d="M118.269,204.967l-11.062-1.637l1.408-7.723c3.842,1.415,7.961,1.946,12.243,1.887
							L118.269,204.967z"/>
						<path style="fill:#F09510;" d="M123.901,188.71l-3.043,8.784c-4.282,0.059-8.4-0.472-12.243-1.887l1.637-8.983L123.901,188.71
							z"/>
						<path style="fill:#FDBB8B;" d="M118.168,193.196h7.379c7.605,0,13.77-6.165,13.77-13.77v-25.837
							c0-7.605-6.165-13.77-13.77-13.77h-7.379c-7.605,0-13.77,6.165-13.77,13.77v25.837
							C104.398,187.031,110.563,193.196,118.168,193.196z"/>
						<path style="fill:#052954;" d="M103.108,171.452c0,0,21.603-12.715,25.74-22.368c0,0,0.12,5.959,0.279,10.887
							c0,0,7.072-3.714,5.393-10.887l4.798,14.171l0.553-11.898c0.503-10.827-7.994-19.952-18.829-20.22l0,0
							c-11.571-0.286-20.797,9.592-19.723,21.116L103.108,171.452z"/>
						<circle style="fill:#FDBB8B;" cx="102.604" cy="170.438" r="7.183"/>
						<path style="fill:#F09510;" d="M102.282,169.669c-0.196-0.172-0.389-0.348-0.583-0.522c-0.221-0.199-0.471-0.382-0.628-0.638
							c-0.145-0.237-0.096-0.567,0.098-0.762c0.21-0.209,0.506-0.217,0.762-0.098c0.25,0.116,0.457,0.356,0.663,0.538
							c0.195,0.173,0.391,0.345,0.585,0.52c0.399,0.36,0.796,0.721,1.194,1.081c0.785,0.71,1.569,1.421,2.354,2.132
							c0.25,0.226,0.23,0.653,0,0.883c-0.251,0.251-0.629,0.223-0.883,0c-0.428-0.376-0.855-0.752-1.283-1.128
							c-0.15,0.239-0.341,0.462-0.512,0.68c-0.195,0.249-0.39,0.499-0.585,0.748c-0.39,0.498-0.789,0.989-1.184,1.483
							c-0.104,0.13-0.333,0.204-0.491,0.204c-0.17,0-0.374-0.076-0.491-0.204c-0.274-0.298-0.249-0.684,0-0.983
							c0.404-0.484,0.805-0.972,1.215-1.452c0.198-0.232,0.397-0.465,0.595-0.698c0.105-0.124,0.211-0.247,0.316-0.371
							c0.069-0.081,0.151-0.143,0.225-0.211c-0.063-0.056-0.127-0.112-0.19-0.167C103.066,170.358,102.674,170.014,102.282,169.669z
							"/>
					</g>
					<g>
						<path style="fill:#052954;" d="M130.726,170.128c0,1.412,0.849,2.557,1.897,2.557c1.048,0,1.897-1.145,1.897-2.557
							c0-1.412-0.849-2.557-1.897-2.557C131.576,167.571,130.726,168.716,130.726,170.128z"/>
						<path style="fill:#FF4545;" d="M126.752,166.514v11.107h0.451c2.986,0,4.763-3.331,3.1-5.811L126.752,166.514z"/>
						<path style="fill:#052954;" d="M118.064,170.128c0,1.412,0.849,2.557,1.897,2.557s1.897-1.145,1.897-2.557
							c0-1.412-0.849-2.557-1.897-2.557S118.064,168.716,118.064,170.128z"/>
						<g>
							<path style="fill:#FF4545;" d="M122.065,188.794c-1.701,0.387-3.594,0.215-5.552-1.06c-3.736-2.433-4.6-6.199-4.638-9.044
								C116.848,180.313,120.934,184.051,122.065,188.794z"/>
							<path style="fill:#052954;" d="M112.324,174.788l16.803,8.881c0,0-2.968,4.193-7.062,5.124
								c-1.131-4.743-5.217-8.481-10.19-10.104C111.845,176.455,112.324,174.788,112.324,174.788z"/>
						</g>
					</g>
				</g>
				<g>
					<path style="fill:#F6F6F6;" d="M114.415,262.973c-7.63-26.778-8.609-62.686-8.609-62.686h-9.868l0,0
						c-11.994,30.18-18.474,62.268-19.131,94.737l-8.048,46.183h63.265C132.023,341.207,122.045,289.751,114.415,262.973z"/>
					<path style="fill:#CEDDED;" d="M106.697,197.574c0,0,12.533,43.082,9.459,71.773l-12.346-35.844l3.646-2.96l-6.719-2.061
						l-4.09-29.158L106.697,197.574z"/>
				</g>
				<g>
					<g>
						<polygon style="fill:#1B6CE2;" points="108.792,300.707 100.987,253.01 138.04,248.662 140.291,300.707 						"/>
						<polygon style="fill:#164B8F;" points="110.456,248.662 112.488,254.544 126.752,252.461 126.752,247.139 						"/>
					</g>
					<g>
						<path style="fill:#FDBB8B;" d="M116.258,281.081c0,0,18.913,3.944,18.503-4.243c-0.409-8.187-10.861-6.09-10.861-6.09
							s3-3.875,1.612-5.278c-1.388-1.403-11.48,6.596-11.48,6.596"/>
						<path style="fill:#CEDDED;" d="M95.861,200.285l-0.017,0.584c-0.337,11.634-2.85,23.112-7.508,33.778
							c-3.051,6.988-6.306,15.135-7.946,21.443c-3.588,13.804,37.76,12.497,37.76,12.497l1.272,19.837
							c0,0-46.875,7.997-56.481-9.552C45.368,246.77,92.106,202.592,95.861,200.285z"/>
						<polygon style="fill:#F6F6F6;" points="111.696,266.603 109.869,278.661 104.51,277.669 105.422,265.469 						"/>
					</g>
				</g>
				<rect x="88.95" y="307.326" style="fill:#CEDDED;" width="24.548" height="6.111"/>
				<polyline style="fill:#F6F6F6;" points="165.87,204.967 179.585,203.563 179.585,195.607 165.87,198.963 				"/>
			</g>
		</g>
	</g>
</g>
</svg>
