<svg width="466" height="457" viewBox="0 0 466 457" fill="none" xmlns="http://www.w3.org/2000/svg">
<path d="M465.115 166.537V290.605C465.115 301.407 456.6 310.169 446.062 310.169H347.225C331.826 310.169 317.603 301.664 310.017 287.872C281.148 235.386 239.171 191.592 188.665 161.141C173.324 151.892 163.719 135.152 163.719 116.855V19.608C163.719 8.824 172.293 0 182.772 0H303.288C313.826 0 322.341 8.806 322.341 19.608V146.929H446.061C456.585 146.929 465.115 155.708 465.115 166.537Z" fill="#44A6F1"/>
<path d="M163.709 327.997V430.488C163.709 444.792 175.305 456.388 189.609 456.388H300.254C314.558 456.388 326.154 444.792 326.154 430.488V367.66C326.154 325.199 281.47 266.46 259.748 241.84C206.257 181.213 152.728 147.743 47.53 147.743H7.16397C42.419 214.348 132.124 251.002 190.173 253.19C124.779 254.01 37.352 220.074 0.823975 152.864C3.10697 247.259 68.288 303.414 163.71 310.187C220.775 314.238 276.304 312.601 295.734 341.386C305.557 355.939 304.606 369.005 304.606 386.828L304.572 430.488C304.57 432.873 302.637 434.805 300.252 434.805H189.609C187.225 434.805 185.292 432.872 185.292 430.488C185.292 430.488 185.292 376.989 185.292 358.06C185.292 330.38 163.709 327.997 163.709 327.997Z" fill="url(#paint0_linear_17_704)"/>
<defs>
<linearGradient id="paint0_linear_17_704" x1="163.488" y1="147.743" x2="163.488" y2="462.753" gradientUnits="userSpaceOnUse">
<stop stop-color="#88C250"/>
<stop offset="0.1243" stop-color="#80BF64"/>
<stop offset="0.3767" stop-color="#6AB696"/>
<stop offset="0.4776" stop-color="#61B2AC"/>
<stop offset="1" stop-color="#44A6F1"/>
</linearGradient>
</defs>
</svg>
