<?xml version="1.0" ?><svg id="Medicine" style="enable-background:new 0 0 32 32;" version="1.1" viewBox="0 0 32 32" xml:space="preserve" xmlns="http://www.w3.org/2000/svg" xmlns:xlink="http://www.w3.org/1999/xlink"><style type="text/css">
	.st0{fill:#E4EDF2;}
	.st1{fill:#B9F3F8;}
	.st2{fill:#F25949;}
	.st3{fill:#FFFFFF;}
</style><g><path class="st0" d="M22.5,6.19c0.015,0,0.029,0.004,0.044,0.004V3c0-0.552-0.447-1-1-1H10.457c-0.552,0-1,0.448-1,1v3.194   c0.015,0,0.029-0.004,0.043-0.004H22.5z"/><path class="st1" d="M6.5,24.1V27c0,1.65,1.35,3,3,3h13c1.65,0,3-1.35,3-3v-2.9H6.5z"/><path class="st1" d="M22.544,6.194c-0.015,0-0.029-0.004-0.044-0.004h-13c-0.015,0-0.029,0.004-0.043,0.004   C7.827,6.218,6.5,7.555,6.5,9.19v2.91h19V9.19C25.5,7.555,24.173,6.219,22.544,6.194z"/><path class="st2" d="M6.5,12.1v12h19v-12H6.5z M18,19.097h-1v1c0,0.553-0.448,1-1,1s-1-0.447-1-1v-1h-1c-0.552,0-1-0.447-1-1   s0.448-1,1-1h1v-1c0-0.552,0.448-1,1-1s1,0.448,1,1v1h1c0.553,0,1,0.447,1,1S18.553,19.097,18,19.097z"/><path class="st3" d="M18,17.097h-1v-1c0-0.552-0.448-1-1-1s-1,0.448-1,1v1h-1c-0.552,0-1,0.447-1,1s0.448,1,1,1h1v1   c0,0.553,0.448,1,1,1s1-0.447,1-1v-1h1c0.553,0,1-0.447,1-1S18.553,17.097,18,17.097z"/></g></svg>